<?xml version="1.0" standalone="no"?><svg xmlns="http://www.w3.org/2000/svg" viewBox="0 0 1440 320"><path fill="#b23a2f" fill-opacity="1" d="M0,160L0,0L65.5,0L65.5,32L130.9,32L130.9,32L196.4,32L196.4,128L261.8,128L261.8,64L327.3,64L327.3,96L392.7,96L392.7,192L458.2,192L458.2,288L523.6,288L523.6,256L589.1,256L589.1,256L654.5,256L654.5,192L720,192L720,256L785.5,256L785.5,256L850.9,256L850.9,288L916.4,288L916.4,64L981.8,64L981.8,32L1047.3,32L1047.3,64L1112.7,64L1112.7,160L1178.2,160L1178.2,160L1243.6,160L1243.6,96L1309.1,96L1309.1,96L1374.5,96L1374.5,256L1440,256L1440,320L1374.5,320L1374.5,320L1309.1,320L1309.1,320L1243.6,320L1243.6,320L1178.2,320L1178.2,320L1112.7,320L1112.7,320L1047.3,320L1047.3,320L981.8,320L981.8,320L916.4,320L916.4,320L850.9,320L850.9,320L785.5,320L785.5,320L720,320L720,320L654.5,320L654.5,320L589.1,320L589.1,320L523.6,320L523.6,320L458.2,320L458.2,320L392.7,320L392.7,320L327.3,320L327.3,320L261.8,320L261.8,320L196.4,320L196.4,320L130.9,320L130.9,320L65.5,320L65.5,320L0,320L0,320Z"></path></svg>